<svg xmlns="http://www.w3.org/2000/svg" version="1.1" xmlns:xlink="http://www.w3.org/1999/xlink" width="512" height="512" viewBox="0 0 135.46666 135.46667" id="svg1" inkscape:version="1.4.3 (0d15f75042, 2025-12-25)" sodipodi:docname="fosscet_logo.svg" xmlns:inkscape="http://www.inkscape.org/namespaces/inkscape" xmlns:sodipodi="http://sodipodi.sourceforge.net/DTD/sodipodi-0.dtd" xmlns:svg="http://www.w3.org/2000/svg"><sodipodi:namedview id="namedview1" pagecolor="#000000" bordercolor="#eeeeee" borderopacity="1" inkscape:showpageshadow="0" inkscape:pageopacity="0" inkscape:pagecheckerboard="0" inkscape:deskcolor="#505050" inkscape:document-units="mm" inkscape:zoom="0.93982706" inkscape:cx="331.44396" inkscape:cy="221.84933" inkscape:window-width="1707" inkscape:window-height="1072" inkscape:window-x="0" inkscape:window-y="0" inkscape:window-maximized="0" inkscape:current-layer="layer1"></sodipodi:namedview><defs id="defs1">
    <inkscape:path-effect effect="fillet_chamfer" id="path-effect48" is_visible="true" lpeversion="1" nodesatellites_param="F,0,0,1,0,0,0,1 @ F,0,0,1,0,0,0,1 @ F,0,0,1,0,3.0458555,0,1 @ F,0,0,1,0,7.7339258,0,1 @ F,0,0,1,0,0,0,1 @ F,0,0,1,0,0,0,1 @ F,0,0,1,0,0,0,1 @ F,0,0,1,0,0,0,1 @ F,0,0,1,0,0,0,1 @ F,0,0,1,0,0,0,1 @ F,0,0,1,0,0,0,1 @ F,0,0,1,0,0,0,1 @ F,0,0,1,0,0,0,1 @ F,0,0,1,0,0,0,1 @ F,0,0,1,0,1.0251985,0,1 @ F,0,0,1,0,0.44083649,0,1 @ F,0,0,1,0,0,0,1 @ F,0,0,1,0,0,0,1 @ F,0,0,1,0,0,0,1 @ F,0,0,1,0,0,0,1 @ F,0,0,1,0,0,0,1 @ F,0,0,1,0,0,0,1 @ F,0,0,1,0,0,0,1 @ F,0,0,1,0,0,0,1 @ F,0,0,1,0,0,0,1 @ F,0,0,1,0,0,0,1 @ F,0,0,1,0,0,0,1 @ F,0,0,1,0,0,0,1" radius="0" unit="px" method="auto" mode="F" chamfer_steps="1" flexible="false" use_knot_distance="true" apply_no_radius="true" apply_with_radius="true" only_selected="false" hide_knots="false"></inkscape:path-effect>
    <inkscape:path-effect effect="fillet_chamfer" id="path-effect47" is_visible="true" lpeversion="1" nodesatellites_param="F,0,0,1,0,0,0,1 @ F,0,0,1,0,7.5063536,0,1 @ F,0,0,1,0,0,0,1 @ F,0,0,1,0,0,0,1 @ F,0,0,1,0,0,0,1 @ F,0,0,1,0,0,0,1 @ F,0,0,1,0,0,0,1 @ F,0,0,1,0,0,0,1 @ F,0,0,1,0,0,0,1 @ F,0,0,1,0,0,0,1 @ F,0,0,1,0,0,0,1 @ F,0,0,1,0,0,0,1 @ F,0,0,1,0,0,0,1 @ F,0,0,1,0,0,0,1 @ F,0,0,1,0,0,0,1 @ F,0,0,1,0,0,0,1 @ F,0,0,1,0,7.0169719,0,1 @ F,0,0,1,0,0,0,1 @ F,0,0,1,0,0,0,1 @ F,0,0,1,0,0,0,1 @ F,0,0,1,0,0,0,1 @ F,0,0,1,0,0,0,1 @ F,0,0,1,0,0,0,1 @ F,0,0,1,0,0,0,1 @ F,0,0,1,0,0,0,1 @ F,0,0,1,0,0,0,1 @ F,0,0,1,0,0,0,1 @ F,0,0,1,0,0,0,1 @ F,0,0,1,0,0,0,1" radius="0" unit="px" method="auto" mode="F" chamfer_steps="1" flexible="false" use_knot_distance="true" apply_no_radius="true" apply_with_radius="true" only_selected="false" hide_knots="false"></inkscape:path-effect>
    <linearGradient id="linearGradient1" inkscape:collect="always">
      <stop style="stop-color:#00ff72;stop-opacity:1;" offset="0.50367922" id="stop1"></stop>
      <stop style="stop-color:#007132;stop-opacity:0.95999998;" offset="1" id="stop2"></stop>
    </linearGradient>
    <linearGradient inkscape:collect="always" xlink:href="#linearGradient1" id="linearGradient46" gradientUnits="userSpaceOnUse" gradientTransform="translate(-0.001097,-0.001295)" x1="13.894775" y1="-325.49243" x2="13.894775" y2="-76.697189"></linearGradient>
  </defs><g inkscape:label="Layer 1" inkscape:groupmode="layer" id="layer1">
    <g id="g1" transform="matrix(2.8763974,0,0,2.8763974,-127.09465,-114.07194)">
      <path id="path10" style="font-weight:bold;font-size:96.9945px;font-family:'0xProto';-inkscape-font-specification:'0xProto Bold';letter-spacing:-7.0725px;fill:#007132;fill-opacity:1;stroke-width:3.24828" d="m -106.78403,-233.1326 0.007,3.87636 0.001,1.7568 a 92.273656,92.273656 88.073623 0 0 0.20466,6.08495 c 0.0428,0.64131 0.31377,4.62169 0.95442,8.84407 0.0832,0.54859 0.1997,1.32695 0.37055,2.50715 4.14655,28.14117 16.863746,39.75503 33.173497,39.75503 19.62699,0 28.751061,-15.83662 44.78438,-15.83662 12.439639,0 25.7058734,12.67373 25.7058734,38.35256 v 17.58131 H 29.3814 v -17.58131 c 0,-25.67883 13.269287,-38.35256 25.708929,-38.35256 16.033313,0 25.145168,15.83662 44.772158,15.83662 16.309773,0 29.026963,-11.61386 33.173503,-39.75503 0.85904,-5.93414 0.64083,-8.39953 1.46331,-16.42315 0.0577,-0.56295 0.10694,-1.47806 0.10694,-2.04426 v -0.22673 -2.09926 l 3e-5,-2.28536 c -0.70992,6.09226 -0.84182,8.47061 -1.57025,12.87341 -4.14654,24.62355 -16.86373,35.52928 -33.173503,35.52928 -19.62699,0 -28.738845,-15.8244 -44.772158,-15.8244 -12.992514,0 -29.030252,18.98642 -29.030252,39.03699 v 21.11041 H 1.7291762 v -21.11041 c 0,-20.05057 -16.0255152,-39.03699 -29.0180292,-39.03699 -16.033319,0 -25.15739,15.8244 -44.78438,15.8244 -16.309751,0 -29.026947,-10.90573 -33.173497,-35.52928 -0.7286,-4.40392 -0.8269,-6.76949 -1.5373,-12.86398 z" sodipodi:nodetypes="cccccsssccsssccccccsssccssscc" inkscape:path-effect="#path-effect48" inkscape:original-d="m -106.78403,-233.1326 0.007,3.87636 0.003,4.80265 0.28023,4.20026 c 0.94935,8.84803 0.35292,4.01043 1.2475,10.19006 4.14655,28.14117 16.863746,39.75503 33.173497,39.75503 19.62699,0 28.751061,-15.83662 44.78438,-15.83662 12.439639,0 25.7058734,12.67373 25.7058734,38.35256 v 17.58131 H 29.3814 v -17.58131 c 0,-25.67883 13.269287,-38.35256 25.708929,-38.35256 16.033313,0 25.145168,15.83662 44.772158,15.83662 16.309773,0 29.026963,-11.61386 33.173503,-39.75503 0.89438,-6.17826 0.62105,-8.5965 1.57025,-17.44221 v -1.69277 -1.65842 l 3e-5,-2.28536 c -0.70992,6.09226 -0.84182,8.47061 -1.57025,12.87341 -4.14654,24.62355 -16.86373,35.52928 -33.173503,35.52928 -19.62699,0 -28.738845,-15.8244 -44.772158,-15.8244 -12.992514,0 -29.030252,18.98642 -29.030252,39.03699 v 21.11041 H 1.7291762 v -21.11041 c 0,-20.05057 -16.0255152,-39.03699 -29.0180292,-39.03699 -16.033319,0 -25.15739,15.8244 -44.78438,15.8244 -16.309751,0 -29.026947,-10.90573 -33.173497,-35.52928 -0.7286,-4.40392 -0.8269,-6.76949 -1.5373,-12.86398 z" transform="matrix(0.19431902,0,0,0.19431902,65.030138,102.2828)"></path>
      <path id="path36" style="font-style:italic;font-size:96.9945px;font-family:'0xProto';-inkscape-font-specification:'0xProto Italic';letter-spacing:-7.0725px;fill:url(#linearGradient46);stroke-width:3.24828" d="m -83.414278,-271.98259 c -8.700748,0.003 -16.840692,10.56653 -22.123642,28.29516 -1.18372,3.97233 -1.52814,10.59803 -0.98522,14.70793 0.42474,3.2152 0.85454,6.17096 1.27429,8.70809 4.14655,24.62355 16.863752,35.53234 33.173502,35.53234 6.42684,0 11.72906,-1.69889 16.51495,-3.98131 l 0.003,-0.0886 c 9.80084,-4.68896 17.5052,-11.75754 28.26637,-11.75754 12.99252,0 29.018031,29.01477 29.018031,39.04005 0,10.02528 -3.3091,31.31576 -3.3091,31.31576 h 30.96133 c 0,0 -2.26128,-21.34635 -3.31827,-31.31576 -1.05698,-9.96941 16.03468,-39.04005 29.0272,-39.04005 10.75992,0 18.45781,7.06613 28.25415,11.75449 l 0.0061,0.0917 c 4.78513,2.28302 10.08699,3.98131 16.51495,3.98131 16.309767,0 29.026957,-10.9088 33.173497,-35.53235 0.4408,-2.66427 0.89267,-5.79016 1.33811,-9.19335 0.50294,-3.84252 0.17941,-10.03494 -0.91034,-13.75336 -5.27852,-18.01136 -13.48503,-28.76201 -22.26226,-28.76447 h -0.003 c -0.14211,2.95382 -0.29071,6.44573 -0.51026,10.2084 -1.62139,13.27182 0.12708,42.6366 -18.281027,45.38326 -2.39724,0.21789 -4.84749,-0.29419 -7.35457,-1.20387 -9.63309,-3.49719 -20.17789,-13.21807 -32.46157,-13.21807 -18.79768,0 -30.95455,15.47182 -38.69478,33.41183 -7.74022,-17.94001 -19.903211,-33.41183 -38.700891,-33.41183 -12.27985,0 -22.81744,9.71469 -32.4463,13.21502 -2.50944,0.91205 -4.96025,1.42509 -7.36068,1.20692 -17.971588,-3.94254 -17.345429,-31.11399 -18.29019,-45.38326 -0.21958,-3.76267 -0.36815,-7.25458 -0.51027,-10.2084 z" inkscape:path-effect="#path-effect47" inkscape:original-d="m -83.414278,-271.98259 c -9.830154,0.003 -18.944462,13.48698 -24.031472,35.55372 0.70989,6.09185 1.46853,11.75492 2.1969,16.15746 4.14655,24.62355 16.863752,35.53234 33.173502,35.53234 6.42684,0 11.72906,-1.69889 16.51495,-3.98131 l 0.003,-0.0886 c 9.80084,-4.68896 17.5052,-11.75754 28.26637,-11.75754 12.99252,0 29.018031,29.01477 29.018031,39.04005 0,10.02528 -3.3091,31.31576 -3.3091,31.31576 h 30.96133 c 0,0 -2.26128,-21.34635 -3.31827,-31.31576 -1.05698,-9.96941 16.03468,-39.04005 29.0272,-39.04005 10.75992,0 18.45781,7.06613 28.25415,11.75449 l 0.0061,0.0917 c 4.78513,2.28302 10.08699,3.98131 16.51495,3.98131 16.309767,0 29.026957,-10.9088 33.173497,-35.53235 0.72839,-4.40255 1.48702,-10.0656 2.19691,-16.15745 -5.08699,-22.06669 -14.20127,-35.55098 -24.0314,-35.55373 h -0.003 c -0.14211,2.95382 -0.29071,6.44573 -0.51026,10.2084 -1.62139,13.27182 0.12708,42.6366 -18.281027,45.38326 -2.39724,0.21789 -4.84749,-0.29419 -7.35457,-1.20387 -9.63309,-3.49719 -20.17789,-13.21807 -32.46157,-13.21807 -18.79768,0 -30.95455,15.47182 -38.69478,33.41183 -7.74022,-17.94001 -19.903211,-33.41183 -38.700891,-33.41183 -12.27985,0 -22.81744,9.71469 -32.4463,13.21502 -2.50944,0.91205 -4.96025,1.42509 -7.36068,1.20692 -17.971588,-3.94254 -17.345429,-31.11399 -18.29019,-45.38326 -0.21958,-3.76267 -0.36815,-7.25458 -0.51027,-10.2084 z" sodipodi:nodetypes="sccsccssccssccsccsccccscsccscs" transform="matrix(0.19431902,0,0,0.19431902,65.029135,102.2828)"></path>
    </g>
  </g></svg>